P2
# Mathieu; En 2009; En Sciences Humaines le gros noob
51 41
255
108 98 111 115 117 123 125 135 122 112 125 141 131 136 125 128 145 129 124 116 121 116 103 96 60 35 37 44 33 42 42 44 33 39 35 39 38 34 37 37 48 43 36 35 44 48 43 45 52 52 53 
131 140 136 129 125 147 156 150 155 148 147 138 151 129 116 89 86 85 69 59 45 46 43 40 38 36 40 39 47 39 40 33 38 42 38 38 41 42 41 43 39 43 51 46 42 42 52 49 48 49 44 
121 103 112 86 75 54 43 73 63 58 82 73 86 77 59 74 47 25 38 39 37 40 35 36 39 39 40 38 33 35 39 38 41 34 43 41 38 38 39 42 43 43 43 43 46 51 45 45 42 47 41 
160 171 163 126 140 145 100 82 73 41 37 39 40 41 40 45 38 38 38 34 42 38 40 36 37 39 34 35 40 37 37 40 43 43 39 44 42 41 39 40 39 41 41 36 32 38 47 43 39 46 45 
142 124 111 91 81 49 36 38 40 44 50 47 47 46 41 35 44 38 43 43 38 42 40 40 39 43 46 45 42 36 38 39 37 39 38 39 39 44 40 39 40 41 40 40 42 41 38 39 39 43 48 
39 34 33 38 36 49 39 38 37 37 34 42 46 45 48 42 46 45 39 43 39 36 43 41 44 45 36 35 43 44 43 44 37 42 43 41 41 49 45 42 47 48 45 42 42 42 40 46 48 43 48 
45 40 46 36 28 42 38 44 38 48 48 45 49 55 45 52 48 47 36 42 41 35 41 45 44 45 40 36 36 35 38 40 33 39 40 39 37 42 40 46 41 38 38 40 43 46 48 41 47 45 48 
45 32 38 50 53 49 51 46 50 46 45 52 46 52 48 50 50 44 45 49 41 47 38 36 37 43 43 43 43 41 43 46 42 43 42 45 40 42 44 40 43 50 56 56 50 44 40 45 47 46 40 
42 52 43 47 47 42 48 50 47 43 50 47 42 51 39 50 48 50 50 47 45 49 46 43 46 47 38 37 43 41 37 44 42 41 39 44 40 41 45 40 44 48 45 40 38 39 40 43 46 51 46 
49 47 47 48 52 45 54 44 50 48 50 51 48 51 58 50 47 52 46 43 48 43 51 45 40 41 43 44 43 39 40 41 39 41 40 43 41 44 44 42 40 40 43 46 47 46 45 48 46 46 44 
44 48 47 47 35 56 40 44 45 45 54 59 60 51 54 45 53 43 45 45 43 41 46 48 47 46 42 44 47 41 37 41 36 44 45 44 44 50 44 47 44 46 53 53 46 44 49 48 46 44 50 
53 45 47 42 52 47 46 45 43 42 46 46 35 40 42 40 36 33 38 42 40 39 44 39 39 39 40 41 41 43 46 46 51 42 52 53 50 54 47 43 49 47 42 43 38 45 43 48 45 53 43 
51 48 52 47 50 45 44 46 48 47 43 46 48 56 56 51 45 41 42 41 37 36 38 33 38 40 38 37 41 43 42 37 43 42 42 39 44 44 43 45 43 35 47 50 54 50 54 52 46 50 48 
47 45 47 45 43 42 44 46 44 47 44 48 49 52 55 48 41 40 42 40 39 41 41 42 47 48 44 40 40 39 36 42 38 44 45 42 45 40 51 35 47 55 50 47 46 45 46 61 55 51 49 
44 44 42 44 42 44 45 46 41 46 43 45 43 41 44 47 39 40 43 40 40 43 41 39 39 42 44 44 41 41 43 42 45 50 43 40 50 42 41 50 43 45 41 51 50 48 50 52 48 42 50 
47 49 45 50 48 49 45 47 46 48 37 40 46 45 42 47 40 42 45 43 44 46 42 47 45 45 47 47 45 44 45 42 39 40 47 45 45 42 48 47 52 56 59 50 50 42 51 45 46 41 49 
50 50 45 50 49 51 47 47 45 45 40 43 45 46 44 43 40 42 45 44 46 47 44 45 45 44 42 42 42 41 38 41 51 49 48 44 49 54 52 50 55 53 46 43 46 44 45 41 46 42 44 
47 45 44 46 46 48 48 47 42 42 46 50 43 44 43 45 45 46 45 44 43 43 43 41 43 44 45 48 51 53 52 52 54 50 52 46 43 44 47 39 37 40 42 51 42 47 50 53 53 48 48 
43 44 48 49 46 45 47 47 49 46 46 51 48 51 44 46 49 49 47 46 46 46 49 56 52 51 52 50 45 44 46 45 47 45 46 44 48 44 43 51 54 44 44 42 45 47 47 44 47 49 47 
42 41 47 44 50 50 46 51 51 50 47 47 49 49 48 43 47 45 51 51 47 50 48 39 53 44 41 48 53 42 46 48 48 44 55 46 47 48 47 44 46 42 39 39 41 40 40 42 44 38 37 
45 48 44 53 49 53 52 43 48 44 55 54 51 52 47 50 46 49 45 44 45 41 44 43 49 49 44 46 44 40 37 42 45 44 48 41 46 46 43 40 44 49 44 43 36 36 36 39 42 40 42 
51 46 45 49 50 47 51 54 50 45 49 51 49 53 54 53 48 49 46 46 51 51 57 48 48 44 48 35 44 44 44 42 43 46 44 41 45 44 42 41 40 34 40 37 42 38 39 37 40 39 41 
53 46 49 48 52 47 50 56 45 56 49 55 53 48 52 52 55 52 55 54 48 50 46 47 42 47 46 45 44 50 44 47 43 48 46 45 44 41 44 40 36 42 38 41 33 38 36 36 38 38 40 
46 49 47 52 50 54 49 53 46 54 48 50 55 50 55 49 52 49 51 50 46 49 45 45 46 39 48 39 47 40 40 42 40 46 44 43 42 37 41 42 41 38 46 38 42 38 39 40 40 39 36 
45 48 49 48 50 53 48 45 51 47 57 50 52 46 44 53 49 50 44 41 43 39 42 41 39 37 33 38 37 38 37 31 38 39 36 36 39 35 35 46 36 38 37 43 42 46 39 36 36 39 38 
50 47 52 46 52 49 51 52 53 42 49 44 42 45 45 36 36 44 42 42 45 39 39 32 36 35 41 34 40 35 34 29 39 35 36 34 38 36 35 37 38 42 45 34 36 35 32 35 34 37 34 
47 47 42 48 45 47 52 48 40 44 43 51 42 45 46 44 46 40 40 38 37 42 40 39 40 42 40 31 35 38 36 35 43 35 41 38 39 37 41 38 34 36 33 30 33 38 33 35 32 35 33 
46 50 40 47 49 44 42 40 45 39 40 41 43 37 39 44 44 40 38 39 38 46 39 42 42 36 38 39 40 36 41 40 33 37 34 37 35 32 34 31 33 28 31 30 31 27 34 32 34 27 30 
41 45 45 41 42 47 38 44 36 46 42 40 40 48 36 39 33 44 41 43 44 37 38 37 39 40 30 39 37 38 33 40 35 26 35 30 42 30 34 32 34 31 31 32 32 30 35 31 29 34 35 
47 42 46 44 41 43 41 38 50 42 36 45 44 36 43 40 35 34 35 38 36 42 42 38 36 31 40 38 39 32 37 33 28 37 26 35 28 36 36 32 34 33 30 33 33 33 35 32 34 36 31 
47 40 44 43 40 38 43 43 41 42 45 32 41 43 35 40 39 35 38 39 34 43 38 33 32 32 29 33 32 31 27 30 28 31 28 35 33 34 30 30 31 34 29 33 32 35 33 32 30 38 35 
40 43 48 39 43 41 42 42 43 43 35 41 38 40 39 44 39 47 39 39 40 36 35 39 37 36 31 33 32 33 29 27 31 25 34 28 36 28 28 31 31 34 30 33 32 34 30 26 33 28 27 
40 44 43 41 43 38 42 43 43 42 40 43 43 43 44 43 40 41 34 34 36 38 35 36 31 26 34 27 30 28 32 28 30 29 29 29 26 30 30 33 32 34 32 32 31 32 29 32 30 28 35 
41 39 35 41 37 33 38 42 38 36 45 39 45 42 42 34 37 34 36 36 28 36 27 29 29 35 26 29 29 36 29 34 30 23 28 31 31 31 28 34 30 30 32 29 31 32 30 28 36 36 34 
41 40 41 40 35 43 37 36 33 34 35 42 37 35 36 38 32 39 35 33 29 24 24 27 24 26 31 24 25 25 25 33 30 27 29 33 28 33 32 32 27 25 31 26 30 31 33 36 29 29 25 
38 40 38 35 37 42 36 40 39 44 36 32 40 40 36 34 35 34 32 32 31 32 36 29 28 36 24 23 33 26 32 28 28 31 31 35 33 25 29 26 29 26 32 28 27 27 27 28 22 28 24 
35 40 35 38 36 42 35 39 33 38 41 38 36 35 37 37 34 30 31 35 35 31 28 27 30 34 33 34 36 33 29 30 28 28 28 29 29 27 30 26 19 27 15 19 19 20 25 26 23 27 20 
37 36 39 35 40 39 36 37 38 37 36 35 38 41 36 29 37 40 37 30 26 27 34 37 31 27 26 24 28 31 27 32 31 31 34 31 26 25 23 19 25 18 21 19 17 24 22 23 18 27 28 
35 41 34 41 34 41 35 40 38 33 38 38 35 39 39 38 36 32 31 35 35 30 27 40 27 33 31 29 37 34 35 31 29 25 26 20 16 21 18 16 17 18 22 19 25 20 24 29 28 36 32 
40 37 39 34 37 37 39 35 37 34 37 39 35 36 34 33 37 38 35 33 32 32 34 38 29 37 36 33 37 33 33 27 25 22 24 19 18 25 22 28 21 27 24 31 29 33 37 39 41 47 44 
37 42 34 40 33 40 41 33 41 37 32 33 37 36 31 35 38 37 35 37 38 35 34 39 36 31 31 26 24 30 27 29 29 30 32 31 31 33 31 34 35 30 37 40 35 44 43 43 44 49 51 
