P2
# Mathieu; En 2009; En Sciences Humaines le gros noob
16 16
1
0 0 0 0 0 0 0 0 0 0 0 0 0 0 0 0 
0 0 0 0 0 1 0 0 0 0 0 0 0 1 0 0 
0 0 1 0 0 1 1 0 0 0 0 0 1 1 0 0 
0 0 0 1 0 1 1 1 1 1 1 1 1 1 0 0 
0 0 0 1 0 1 1 1 1 1 1 1 1 1 0 0 
0 0 0 1 0 1 1 0 1 1 1 0 1 1 0 0 
0 0 1 0 0 1 1 1 1 1 1 1 1 1 0 0 
0 0 1 0 0 0 1 1 1 1 1 1 1 0 0 0 
0 1 0 0 1 1 1 1 1 1 1 1 1 1 0 0 
0 1 0 1 1 1 1 1 1 1 1 1 1 1 0 0 
0 1 1 1 1 1 1 1 1 1 1 1 1 1 0 0 
0 1 1 1 1 1 1 1 1 1 1 1 1 1 0 0 
0 0 1 1 1 1 1 1 1 1 1 1 1 0 0 0 
0 0 1 1 1 1 1 1 1 1 1 1 1 0 0 0 
0 0 0 1 1 1 1 1 1 1 1 1 0 0 0 0 
0 0 0 0 0 0 0 0 0 0 0 0 0 0 0 0 
