P2
# Mathieu; En 2009; En Sciences Humaines le gros noob
100 91
255
28 71 5 6 12 7 9 63 29 3 85 53 6 52 70 24 21 37 46 48 23 46 13 14 2 5 77 59 30 72 47 46 58 78 63 25 16 23 59 39 52 60 57 47 49 52 54 90 70 1 21 34 53 40 20 34 23 12 27 39 28 17 19 27 59 24 12 18 31 37 7 6 57 32 14 16 39 107 98 66 33 1 10 40 57 30 53 30 65 54 33 42 36 43 43 38 25 26 50 47 
20 6 4 8 1 4 8 3 33 83 3 27 70 10 17 19 21 43 44 46 46 100 31 13 4 39 86 65 78 57 43 46 46 49 54 42 30 43 52 39 21 26 24 21 19 28 102 26 4 2 32 55 51 24 21 10 53 22 58 94 118 35 25 23 9 46 51 59 158 130 3 9 10 80 3 139 125 40 80 109 85 65 67 68 44 49 20 57 36 44 65 42 42 40 41 52 50 31 52 53 
60 41 49 38 34 27 6 2 2 15 94 29 6 84 67 21 16 39 31 35 43 36 18 18 6 19 23 30 31 32 49 42 48 70 48 43 68 38 36 19 17 38 41 21 58 72 1 9 12 82 129 126 123 184 79 51 28 166 133 86 26 12 15 4 93 110 4 113 98 86 5 1 26 2 160 127 31 48 32 36 39 50 57 69 54 23 39 50 37 30 26 28 22 4 15 31 28 32 37 36 
14 9 6 16 31 14 17 21 8 4 2 42 67 2 5 19 23 75 61 59 60 45 24 14 10 25 73 63 60 62 68 74 71 82 80 68 47 56 59 15 25 52 54 105 43 20 31 40 125 149 93 152 135 115 112 148 103 16 40 76 25 12 34 124 169 105 140 126 190 103 4 41 51 114 94 71 27 44 49 51 65 77 60 27 26 53 48 50 40 39 29 29 28 3 28 37 31 29 32 29 
17 19 20 25 22 14 18 22 16 10 11 3 14 73 34 19 19 33 87 53 50 60 23 9 5 29 79 71 68 72 48 50 45 53 31 45 37 47 98 91 118 136 72 10 19 26 48 145 124 124 115 106 87 127 139 126 130 65 9 1 33 93 175 143 90 13 12 13 20 114 38 2 7 40 61 41 18 52 27 14 22 16 13 26 44 36 36 50 37 37 30 26 15 6 26 35 23 26 28 30 
28 21 18 13 23 12 6 20 16 11 10 10 11 7 64 19 19 3 8 83 61 14 18 7 5 35 71 20 22 41 33 25 25 30 82 88 42 23 15 24 32 27 13 12 32 89 142 102 118 142 86 123 123 131 98 68 34 6 12 49 87 18 145 141 84 34 35 20 118 76 1 3 3 58 45 43 26 19 41 37 42 0 4 3 19 39 45 36 37 60 47 45 80 175 186 29 26 23 25 25 
20 17 19 21 31 46 10 26 28 11 10 13 15 7 5 29 17 49 67 3 51 84 32 15 10 27 43 5 23 45 38 38 55 152 105 13 42 27 38 43 49 40 10 68 130 87 82 125 82 115 99 117 129 71 60 14 12 13 49 141 132 124 8 111 126 44 41 43 32 120 2 2 3 58 47 17 7 30 41 41 86 111 2 3 6 42 32 36 31 34 32 52 42 133 161 37 24 23 32 20 
12 12 10 14 24 22 9 13 24 1 12 8 26 49 6 17 11 60 77 15 3 39 50 12 2 54 59 48 65 44 55 142 126 13 21 38 39 35 37 45 48 39 93 116 115 125 107 133 95 109 98 106 71 26 10 4 4 99 141 106 131 130 167 15 25 92 71 47 127 96 13 0 6 29 14 48 10 26 39 46 104 74 29 17 44 18 16 8 9 16 21 33 69 95 95 29 26 25 19 26 
136 133 124 146 40 164 148 147 145 145 114 94 126 166 176 11 15 3 54 38 36 10 11 11 12 22 70 25 39 140 140 36 19 16 23 38 28 24 76 86 81 88 113 111 116 121 96 119 108 99 68 42 10 10 7 49 125 97 121 127 124 125 118 144 87 11 6 59 70 60 11 4 5 19 53 52 11 18 48 37 109 116 18 29 35 28 27 10 9 20 21 19 20 1 41 30 22 22 25 40 
132 140 145 131 26 146 147 149 148 148 160 167 176 162 63 15 49 10 15 44 24 9 8 22 16 13 33 108 153 40 10 11 23 41 51 28 82 144 143 138 142 138 133 131 133 128 132 124 132 92 130 145 150 139 150 146 137 141 128 125 128 130 130 125 106 99 93 16 76 150 42 2 2 43 39 36 14 24 48 34 85 110 31 68 37 40 11 7 10 9 10 10 12 25 44 29 15 21 22 23 
124 134 147 89 13 138 138 148 154 154 165 150 73 40 132 10 70 38 10 34 20 15 20 9 9 78 169 75 10 14 8 49 43 55 94 146 132 131 129 127 127 125 130 121 128 126 115 123 125 131 130 125 120 131 131 126 130 130 131 133 127 128 133 137 146 139 149 172 44 40 15 5 1 140 171 118 50 50 72 68 45 24 18 8 4 8 4 2 1 7 3 6 4 4 53 23 34 45 36 61 
125 129 146 71 48 126 146 150 156 146 64 66 109 76 70 14 40 31 10 8 77 5 5 22 11 101 11 13 18 28 68 40 80 136 133 127 134 127 122 125 122 128 120 125 123 127 125 121 125 125 120 131 130 125 122 125 127 122 122 127 125 121 126 129 131 132 135 140 168 52 16 3 2 89 158 136 66 90 104 127 93 127 88 112 147 160 156 141 115 99 72 57 41 17 3 30 65 39 14 2 
121 134 111 46 44 80 152 155 84 26 100 128 57 61 85 17 8 49 30 10 28 29 3 15 18 19 18 31 68 117 102 130 132 130 128 126 124 124 123 122 124 123 119 124 120 121 120 124 122 120 122 125 124 123 124 122 124 121 123 121 121 119 116 128 131 129 135 135 142 133 10 3 2 86 94 88 79 66 46 110 42 89 78 41 68 121 142 150 152 156 159 163 170 175 183 166 165 171 182 172 
127 131 79 19 4 16 75 42 110 88 41 81 60 47 5 26 18 15 26 13 12 81 113 36 16 13 71 109 128 123 131 127 129 127 126 124 122 122 121 120 120 116 119 115 121 114 119 119 116 124 121 119 123 131 121 125 123 121 117 123 125 125 129 119 128 124 133 133 139 146 5 2 1 103 138 77 69 95 62 88 123 124 104 115 121 127 140 139 146 137 143 147 147 152 142 153 154 151 149 158 
122 129 83 21 19 34 62 81 88 44 93 49 9 2 16 24 17 30 41 21 16 36 69 99 38 114 123 127 128 133 124 131 124 123 122 121 120 119 119 119 118 117 117 119 118 118 118 120 123 124 130 128 137 126 121 129 117 123 123 126 123 120 124 122 127 127 123 136 136 120 2 5 1 118 149 124 102 97 102 84 131 136 141 131 138 136 137 136 136 129 130 127 139 145 141 122 134 142 160 149 
121 133 73 31 19 44 42 70 106 63 10 2 4 11 18 18 13 28 46 37 12 13 53 17 59 135 130 125 132 122 130 123 121 121 121 119 118 118 118 119 115 117 115 121 116 119 116 120 117 129 66 39 46 93 114 118 125 97 94 106 113 120 123 123 124 121 129 127 134 118 7 10 2 133 137 136 141 140 132 70 46 127 130 125 135 130 123 136 133 114 85 58 71 56 89 119 120 123 91 94 
114 127 71 32 16 23 93 73 15 4 5 11 20 16 25 21 12 34 39 33 20 12 36 9 33 140 129 133 125 126 122 126 121 121 120 119 118 117 118 118 115 115 120 117 120 115 119 120 127 72 74 93 80 88 63 87 88 69 44 62 104 118 118 123 120 120 129 128 138 108 5 4 2 121 141 146 139 136 136 83 148 139 124 121 137 131 142 118 97 85 53 70 60 65 93 25 101 103 102 96 
113 120 49 24 19 24 27 5 7 8 31 27 18 44 39 30 17 67 77 30 15 19 21 5 78 139 127 128 126 122 122 119 121 120 120 118 117 116 116 116 115 116 119 118 119 117 119 121 110 102 129 116 87 94 118 112 49 12 66 117 116 127 122 120 120 127 120 137 141 86 2 2 1 133 142 135 144 132 139 86 142 127 131 136 127 129 116 84 68 60 72 43 71 67 51 90 77 83 93 60 
101 94 95 66 14 15 1 7 11 21 74 75 48 23 66 92 79 164 169 193 34 21 24 7 112 132 133 129 128 120 123 119 118 117 116 116 116 116 115 115 114 116 113 118 113 119 116 118 122 124 120 128 129 126 121 126 123 131 127 126 125 121 123 124 126 125 126 129 142 88 5 5 5 127 146 137 137 137 139 84 142 128 128 127 129 118 109 43 41 57 34 18 7 7 16 37 67 43 32 9 
103 113 123 113 81 94 100 115 130 128 65 73 49 21 64 79 72 169 156 176 27 16 23 8 133 125 122 124 118 118 115 119 114 113 113 113 115 116 116 115 118 116 117 114 119 118 120 119 121 119 121 127 124 125 131 122 125 123 127 123 122 124 119 122 127 129 128 136 145 57 0 2 2 130 139 136 128 132 133 79 139 126 130 128 129 116 108 101 59 21 45 56 71 77 133 135 90 74 109 104 
115 116 119 122 126 131 136 138 143 151 59 75 43 24 63 74 75 157 151 168 16 16 23 12 140 126 127 124 121 114 115 117 117 113 115 115 113 114 115 117 115 118 114 117 116 118 118 116 116 122 120 117 120 122 120 123 123 123 117 120 123 119 121 122 126 122 127 134 146 47 2 1 7 129 137 133 134 127 133 82 139 126 125 121 134 128 130 132 136 146 138 134 134 131 123 131 134 135 129 137 
111 113 115 116 118 122 126 128 135 151 61 76 40 31 63 69 75 158 150 157 14 20 19 17 140 127 118 121 112 118 111 111 108 106 114 107 104 111 109 110 113 114 110 113 111 112 112 111 107 110 112 111 112 115 119 118 115 116 115 116 115 108 107 109 112 126 124 122 145 25 2 4 8 115 129 125 117 116 127 76 128 116 135 32 75 120 114 118 117 121 118 115 115 114 111 114 115 119 120 112 
109 112 115 117 118 119 122 124 135 139 63 74 49 23 63 72 68 154 147 139 10 19 13 22 133 115 106 94 95 93 96 91 87 86 100 93 91 101 97 101 99 99 93 97 95 95 95 95 93 92 96 96 92 96 101 97 104 103 104 104 107 106 102 104 108 101 114 115 140 9 10 6 5 127 129 120 120 114 118 85 120 112 110 3 72 123 117 111 115 114 115 113 113 112 113 110 111 111 110 111 
108 111 114 116 117 119 121 125 130 140 63 71 39 27 64 70 67 154 150 134 13 19 19 32 137 125 119 118 110 113 108 105 107 104 112 110 107 109 106 111 109 108 102 107 105 105 105 106 110 109 110 108 104 106 108 105 109 102 102 102 105 108 103 107 105 116 117 122 144 6 6 3 3 132 123 124 121 122 126 76 127 123 73 6 2 114 117 121 119 116 116 112 115 112 114 109 110 108 113 107 
105 105 106 109 111 114 117 120 125 135 62 69 36 28 63 69 71 152 148 131 16 20 24 32 135 122 117 118 112 110 106 108 107 105 105 106 103 101 103 103 106 105 100 104 102 102 103 104 101 103 101 98 100 100 98 100 100 99 102 100 100 102 101 108 106 104 113 114 128 6 3 6 3 137 123 130 123 118 128 88 127 118 123 4 79 133 118 122 119 118 115 110 117 113 110 111 109 108 108 108 
103 103 103 105 107 110 113 115 124 125 61 67 41 26 62 71 74 146 141 118 16 18 21 24 143 122 116 109 111 105 108 107 102 106 102 102 101 102 108 101 104 105 100 103 101 102 102 101 96 100 95 94 99 99 96 99 93 93 97 97 101 103 101 104 107 110 116 123 95 6 2 3 3 140 134 127 128 131 128 88 135 140 122 5 80 135 124 122 119 120 116 113 119 115 113 117 109 114 111 117 
102 103 105 108 108 109 112 117 116 128 56 67 29 38 64 69 76 144 144 109 13 22 20 27 131 119 110 115 108 112 106 106 106 107 104 102 100 102 104 98 98 101 97 100 98 100 99 96 101 101 100 99 101 101 100 101 104 105 102 104 108 108 107 104 105 106 106 110 105 6 50 78 101 125 117 119 118 112 107 91 58 43 53 57 80 115 144 124 123 120 117 117 115 115 114 114 117 111 112 111 
99 101 105 107 107 107 110 115 121 123 53 63 33 35 65 73 73 143 147 101 11 24 19 33 131 119 117 110 108 107 107 105 104 99 102 102 101 103 101 102 99 104 101 103 102 105 105 100 105 102 104 106 102 103 106 104 107 111 107 109 111 110 117 118 115 122 130 107 69 68 55 55 41 16 18 14 29 29 19 33 57 67 47 22 23 8 33 114 134 128 125 128 119 120 119 115 117 120 117 115 
103 100 103 101 105 109 108 111 118 121 106 94 25 29 50 61 100 136 145 97 18 21 17 32 130 116 109 109 106 104 106 105 102 103 104 104 103 103 104 106 104 106 105 102 101 106 108 106 104 105 103 105 111 108 106 111 113 111 118 105 114 119 118 122 127 135 71 54 74 85 82 47 43 32 80 90 45 23 57 95 107 98 97 48 64 74 37 12 45 122 132 130 138 132 124 120 119 116 123 122 
103 101 104 102 104 108 106 110 113 125 125 107 21 14 46 57 49 142 140 99 16 25 18 19 125 110 108 111 104 103 104 99 99 100 101 101 101 102 102 103 103 104 103 103 101 105 105 104 106 104 108 110 104 107 110 106 110 115 113 121 119 120 122 133 126 54 79 106 108 105 93 107 52 24 39 44 25 48 40 44 45 49 47 37 22 40 40 29 21 48 97 87 73 59 110 132 122 121 121 115 
98 98 100 99 99 102 104 108 110 115 121 108 27 25 57 58 50 128 134 83 16 18 18 34 121 114 107 105 106 102 101 104 100 101 102 103 104 105 105 104 106 107 105 108 107 109 107 107 102 108 109 107 110 114 115 113 116 117 117 121 121 124 139 107 58 93 103 103 96 107 108 99 47 51 56 17 36 51 59 37 5 2 12 26 15 52 35 42 46 56 40 33 25 32 18 66 136 126 126 129 
93 94 96 96 97 98 101 105 108 112 119 106 29 27 63 62 52 121 126 75 14 18 17 20 114 102 104 107 100 101 107 105 101 102 103 103 104 103 103 103 104 102 104 104 106 104 105 106 111 105 107 114 112 111 112 113 117 117 122 118 129 140 84 56 97 102 82 67 79 57 56 52 44 53 23 30 12 11 67 65 52 50 34 47 43 43 40 36 27 15 10 4 6 6 7 54 104 94 83 76 
95 96 96 96 97 98 101 102 105 112 118 102 26 25 62 67 63 100 117 35 6 3 2 11 93 97 97 99 104 102 99 105 101 102 104 104 104 103 104 105 107 104 108 105 110 105 111 113 107 115 112 108 114 115 115 120 124 125 135 144 122 83 43 54 61 52 54 97 69 53 99 83 104 139 81 1 23 29 31 39 46 39 30 17 17 10 3 8 7 7 4 6 10 4 3 36 133 115 126 133 
96 98 96 99 100 101 103 103 107 111 115 106 29 31 64 68 53 111 118 108 101 96 88 97 96 94 99 103 99 100 103 101 103 104 105 106 105 106 107 108 107 104 108 104 108 104 110 113 114 117 114 113 116 118 125 136 133 89 61 22 18 40 47 42 36 37 52 31 41 34 25 26 51 134 114 26 14 19 18 8 6 4 3 3 4 5 5 3 5 10 7 2 2 10 23 30 81 141 148 138 
96 98 97 100 102 103 106 105 109 113 123 117 26 27 62 68 61 114 123 113 121 118 113 115 106 108 104 102 107 105 103 107 103 104 105 106 107 107 107 107 110 111 110 111 110 109 111 113 115 108 117 123 121 132 109 52 25 39 31 43 50 46 41 43 46 52 29 23 37 40 44 30 25 5 3 8 5 6 5 5 7 7 6 11 2 3 7 4 4 4 2 9 2 0 6 9 28 97 79 91 
98 101 99 103 104 102 106 103 108 107 120 120 24 28 66 69 54 109 124 120 113 109 113 109 110 108 107 108 110 110 108 106 107 108 108 110 111 111 110 108 107 111 107 113 105 111 106 107 109 116 116 116 101 61 38 53 55 67 78 78 78 45 29 33 24 30 47 35 29 20 21 10 4 2 8 5 6 9 2 4 8 2 3 7 7 10 5 7 6 4 4 2 10 4 8 2 50 138 105 87 
98 99 104 102 106 103 105 104 111 111 112 120 29 25 62 64 59 109 121 121 111 116 116 105 110 114 113 109 111 111 109 108 108 106 105 103 97 98 97 105 110 110 112 114 120 117 117 121 122 114 101 180 238 61 54 55 63 69 45 57 132 184 223 197 179 43 9 11 2 6 1 1 7 5 5 7 0 4 4 5 7 7 8 6 5 6 6 6 5 2 27 42 30 1 5 8 39 34 32 29 
101 103 105 105 104 105 107 108 106 108 117 92 22 35 63 69 62 71 128 119 116 114 106 115 115 109 105 111 108 100 105 107 106 110 105 117 116 89 121 111 114 116 108 111 84 82 79 72 64 66 58 247 214 78 59 59 30 87 145 186 247 253 252 147 40 9 6 1 3 1 13 15 1 6 4 3 9 14 6 3 3 3 3 1 3 3 3 3 2 11 56 30 46 11 2 48 46 45 44 39 
105 107 105 107 104 108 108 112 116 118 127 98 26 21 67 66 61 113 122 116 115 114 114 118 109 113 115 108 112 118 111 115 108 110 99 101 90 83 73 75 65 62 59 52 55 83 98 89 114 128 121 26 23 38 19 30 62 68 29 55 76 62 15 3 6 6 1 6 5 10 16 29 14 4 7 5 2 1 5 5 5 3 2 1 1 2 3 3 1 3 6 31 17 17 41 33 39 36 37 37 
104 107 111 116 114 114 112 112 116 117 138 93 23 28 71 67 59 112 120 121 123 117 120 110 115 112 105 103 88 78 79 63 52 47 49 46 62 71 79 85 102 105 112 129 131 136 122 127 120 122 100 36 4 0 1 3 1 1 2 3 4 4 2 8 5 6 7 1 10 51 63 69 37 9 6 4 1 1 6 3 0 0 2 6 10 14 17 20 11 1 12 19 24 20 33 36 29 38 36 33 
109 101 95 87 85 83 87 89 90 106 122 85 29 26 66 71 60 102 115 100 93 89 78 75 61 53 54 56 70 80 74 82 98 86 115 125 128 126 129 123 134 128 124 121 120 121 115 129 122 116 129 74 7 5 3 1 1 3 1 5 3 2 6 2 10 10 2 3 6 67 57 51 34 17 10 1 4 5 3 2 7 8 9 7 6 5 6 7 3 0 0 7 2 10 13 17 26 22 28 37 
97 92 92 89 95 96 101 101 100 99 93 70 30 28 76 72 64 65 66 78 80 84 90 92 95 103 118 130 119 113 125 121 129 118 124 120 125 107 125 108 107 118 115 109 115 115 131 119 125 110 133 130 8 0 1 2 4 3 4 3 3 3 4 3 2 1 4 3 14 29 47 50 24 11 9 7 1 1 1 0 1 1 5 5 5 6 8 11 13 14 17 15 26 28 35 39 34 33 41 45 
77 74 73 77 81 84 89 92 92 101 130 80 26 36 74 71 61 99 140 130 136 128 125 127 135 120 122 127 128 125 122 132 125 126 130 125 118 123 90 91 114 108 126 118 108 119 92 115 118 108 107 96 85 48 15 4 1 1 4 2 5 16 6 9 10 11 3 2 5 14 33 31 20 1 2 9 3 1 3 4 3 7 12 17 19 22 25 28 31 29 39 41 37 31 42 52 67 90 58 35 
115 114 112 117 115 118 117 121 122 125 132 72 30 31 68 67 58 92 126 133 106 118 129 126 125 123 119 114 106 112 123 118 121 117 123 121 121 118 109 117 110 114 94 93 94 68 40 45 33 20 24 25 25 38 36 20 2 5 1 2 15 6 11 16 8 2 8 6 1 4 23 15 3 7 10 12 11 15 14 24 21 23 26 28 29 30 32 35 39 31 31 35 40 106 114 98 72 48 53 115 
94 97 87 90 113 109 112 108 108 115 130 99 44 19 48 58 50 87 121 131 121 117 111 108 112 103 113 120 116 123 116 121 93 111 121 100 95 54 80 53 48 35 22 19 29 29 33 29 31 33 37 34 31 28 19 9 2 6 1 0 2 1 3 9 3 6 8 4 5 13 11 19 20 23 26 23 24 25 26 30 30 29 34 32 43 40 43 65 48 92 112 120 73 39 44 50 42 38 41 33 
82 90 100 119 117 104 117 60 116 115 122 142 36 132 134 129 114 118 117 114 120 111 117 107 107 100 98 97 86 62 58 50 51 42 26 27 26 22 36 33 41 43 40 49 45 42 41 43 47 46 45 44 32 25 18 18 8 14 11 13 9 5 20 16 21 15 20 20 28 27 36 33 37 31 29 38 65 82 100 95 88 96 101 111 116 109 107 117 128 93 59 44 45 50 45 41 41 41 43 38 
110 101 104 104 101 109 102 120 97 113 114 125 43 101 119 120 102 109 94 90 72 61 48 32 35 29 19 19 14 42 35 46 38 41 41 47 41 44 43 48 47 47 43 46 47 46 48 47 49 48 49 41 39 34 35 27 35 36 32 37 39 53 46 56 73 67 79 87 75 80 71 74 80 85 113 137 128 120 119 139 143 159 151 158 176 180 128 60 36 30 40 35 43 43 37 41 38 41 37 37 
105 102 109 101 107 104 90 91 92 92 78 67 37 54 45 37 29 20 20 16 23 27 26 26 26 35 37 38 42 39 43 36 44 44 42 43 45 51 45 47 48 48 51 44 51 45 53 46 49 51 50 48 44 46 50 45 45 42 61 66 91 116 125 117 98 110 111 105 109 127 152 145 153 144 128 140 136 140 137 124 109 95 79 74 53 30 30 43 39 45 44 38 42 35 41 39 35 44 44 50 
67 60 38 50 32 28 26 19 17 21 32 32 34 33 32 37 29 34 44 35 35 39 37 37 36 39 37 36 37 42 41 41 47 47 43 49 45 46 42 48 44 48 40 47 39 44 39 41 40 47 48 72 57 54 48 55 55 83 80 103 116 110 109 114 116 121 132 122 117 120 127 139 122 66 50 51 60 40 29 29 32 31 38 34 37 41 41 39 36 40 33 46 51 36 44 47 48 54 49 51 
21 20 24 22 26 29 31 29 36 35 30 40 36 41 29 32 34 42 36 40 32 33 28 24 29 23 30 31 35 37 35 40 45 43 40 36 39 35 37 31 35 33 40 40 45 32 50 64 117 108 98 111 115 117 123 125 135 122 112 125 141 131 136 125 128 145 129 124 116 121 116 103 96 60 35 37 44 33 42 42 44 33 39 35 39 38 34 37 37 48 43 36 35 44 48 43 45 52 52 53 
107 94 94 113 109 110 109 109 102 91 115 139 55 126 134 133 149 138 135 127 114 86 92 104 113 124 139 134 122 148 82 44 33 43 67 65 80 88 108 107 112 104 94 115 118 123 122 127 118 131 140 136 129 125 147 156 150 155 148 147 138 151 129 116 89 86 85 69 59 45 46 43 40 38 36 40 39 47 39 40 33 38 42 38 38 41 42 41 43 39 43 51 46 42 42 52 49 48 49 44 
125 130 130 124 124 124 124 127 122 132 130 125 128 125 129 135 138 138 139 127 119 128 123 129 126 129 129 138 137 125 150 149 148 130 124 125 124 136 132 131 140 138 148 124 126 97 116 117 119 121 103 112 86 75 54 43 73 63 58 82 73 86 77 59 74 47 25 38 39 37 40 35 36 39 39 40 38 33 35 39 38 41 34 43 41 38 38 39 42 43 43 43 43 46 51 45 45 42 47 41 
118 124 126 129 123 127 125 127 130 121 116 118 105 99 91 78 59 43 37 81 109 116 118 115 120 127 134 122 133 133 131 134 132 137 136 137 138 141 141 145 142 145 148 147 147 152 156 157 160 160 171 163 126 140 145 100 82 73 41 37 39 40 41 40 45 38 38 38 34 42 38 40 36 37 39 34 35 40 37 37 40 43 43 39 44 42 41 39 40 39 41 41 36 32 38 47 43 39 46 45 
114 102 91 88 69 84 63 43 24 29 6 7 43 10 11 12 39 69 101 123 124 128 130 128 134 123 123 131 123 124 131 130 129 138 137 135 128 135 137 141 141 137 137 145 144 138 135 140 138 142 124 111 91 81 49 36 38 40 44 50 47 47 46 41 35 44 38 43 43 38 42 40 40 39 43 46 45 42 36 38 39 37 39 38 39 39 44 40 39 40 41 40 40 42 41 38 39 39 43 48 
58 46 56 66 78 87 114 116 127 124 136 136 123 126 136 135 133 124 123 126 126 131 126 126 124 131 126 123 135 134 139 136 140 136 139 130 136 133 140 136 129 133 125 119 114 116 94 72 61 39 34 33 38 36 49 39 38 37 37 34 42 46 45 48 42 46 45 39 43 39 36 43 41 44 45 36 35 43 44 43 44 37 42 43 41 41 49 45 42 47 48 45 42 42 42 40 46 48 43 48 
114 124 124 131 127 127 127 130 128 124 123 124 127 124 128 129 129 127 132 132 128 128 128 133 127 136 118 127 125 128 118 130 121 116 120 134 133 129 116 105 87 70 50 44 32 29 30 40 43 45 40 46 36 28 42 38 44 38 48 48 45 49 55 45 52 48 47 36 42 41 35 41 45 44 45 40 36 36 35 38 40 33 39 40 39 37 42 40 46 41 38 38 40 43 46 48 41 47 45 48 
121 126 128 121 126 130 126 126 125 127 134 131 132 132 131 128 134 132 131 131 127 121 120 116 124 111 111 125 118 131 124 109 103 84 78 59 53 34 38 34 32 37 39 40 38 42 41 40 39 45 32 38 50 53 49 51 46 50 46 45 52 46 52 48 50 50 44 45 49 41 47 38 36 37 43 43 43 43 41 43 46 42 43 42 45 40 42 44 40 43 50 56 56 50 44 40 45 47 46 40 
122 128 119 129 124 125 130 117 125 134 129 126 131 134 132 127 123 118 111 110 113 112 119 115 109 114 111 74 76 55 36 31 24 29 32 37 31 35 33 34 42 39 34 35 39 42 41 38 45 42 52 43 47 47 42 48 50 47 43 50 47 42 51 39 50 48 50 50 47 45 49 46 43 46 47 38 37 43 41 37 44 42 41 39 44 40 41 45 40 44 48 45 40 38 39 40 43 46 51 46 
127 131 123 129 134 130 133 108 130 97 121 109 111 99 91 105 121 118 118 107 104 97 82 63 51 37 31 34 37 39 39 37 40 41 42 38 41 42 43 41 37 36 41 39 46 43 47 49 46 49 47 47 48 52 45 54 44 50 48 50 51 48 51 58 50 47 52 46 43 48 43 51 45 40 41 43 44 43 39 40 41 39 41 40 43 41 44 44 42 40 40 43 46 47 46 45 48 46 46 44 
109 101 93 111 87 96 42 64 73 56 86 127 119 113 112 105 78 44 37 33 39 36 32 40 37 44 39 39 39 36 39 40 39 41 36 41 39 42 38 44 48 44 47 40 49 43 45 40 41 44 48 47 47 35 56 40 44 45 45 54 59 60 51 54 45 53 43 45 45 43 41 46 48 47 46 42 44 47 41 37 41 36 44 45 44 44 50 44 47 44 46 53 53 46 44 49 48 46 44 50 
47 39 74 80 93 104 122 114 112 102 82 60 44 37 34 33 36 38 41 43 41 39 41 46 41 38 42 41 41 39 37 40 49 49 53 45 46 43 52 43 49 46 45 42 42 45 46 49 51 53 45 47 42 52 47 46 45 43 42 46 46 35 40 42 40 36 33 38 42 40 39 44 39 39 39 40 41 41 43 46 46 51 42 52 53 50 54 47 43 49 47 42 43 38 45 43 48 45 53 43 
121 104 91 84 74 64 41 38 35 37 38 39 39 38 36 34 34 36 38 38 37 37 38 39 35 42 43 39 47 41 53 44 40 43 47 51 49 46 44 35 42 44 41 45 47 48 52 50 49 51 48 52 47 50 45 44 46 48 47 43 46 48 56 56 51 45 41 42 41 37 36 38 33 38 40 38 37 41 43 42 37 43 42 42 39 44 44 43 45 43 35 47 50 54 50 54 52 46 50 48 
32 39 44 34 42 44 41 45 44 44 42 38 34 34 34 34 34 37 38 37 37 39 40 39 43 39 42 47 39 45 35 46 43 41 38 43 43 45 48 45 51 48 49 49 51 53 51 50 48 47 45 47 45 43 42 44 46 44 47 44 48 49 52 55 48 41 40 42 40 39 41 41 42 47 48 44 40 40 39 36 42 38 44 45 42 45 40 51 35 47 55 50 47 46 45 46 61 55 51 49 
49 45 48 53 45 47 43 44 40 39 37 34 33 34 35 36 38 39 39 37 38 40 42 42 37 43 41 42 40 41 44 42 43 44 50 52 58 52 53 46 54 50 51 47 47 49 45 46 47 44 44 42 44 42 44 45 46 41 46 43 45 43 41 44 47 39 40 43 40 40 43 41 39 39 42 44 44 41 41 43 42 45 50 43 40 50 42 41 50 43 45 41 51 50 48 50 52 48 42 50 
49 34 44 40 42 38 48 40 43 42 40 38 38 36 34 34 38 37 38 39 39 38 39 42 40 46 44 46 45 47 50 49 51 54 53 48 50 49 53 50 47 52 43 48 48 43 51 46 49 47 49 45 50 48 49 45 47 46 48 37 40 46 45 42 47 40 42 45 43 44 46 42 47 45 45 47 47 45 44 45 42 39 40 47 45 45 42 48 47 52 56 59 50 50 42 51 45 46 41 49 
38 48 46 48 37 45 42 44 45 43 40 39 38 36 37 37 36 36 39 43 43 41 42 45 50 45 47 53 46 52 42 54 44 53 48 49 44 48 45 43 50 43 54 47 47 54 44 51 52 50 50 45 50 49 51 47 47 45 45 40 43 45 46 44 43 40 42 45 44 46 47 44 45 45 44 42 42 42 41 38 41 51 49 48 44 49 54 52 50 55 53 46 43 46 44 45 41 46 42 44 
41 40 41 41 48 36 36 39 37 37 38 40 41 40 39 39 39 40 42 45 46 47 47 48 42 48 47 42 49 44 55 45 44 52 45 50 46 51 45 46 46 52 43 50 50 43 50 42 50 47 45 44 46 46 48 48 47 42 42 46 50 43 44 43 45 45 46 45 44 43 43 43 41 43 44 45 48 51 53 52 52 54 50 52 46 43 44 47 39 37 40 42 51 42 47 50 53 53 48 48 
42 41 44 34 45 39 44 39 42 41 39 39 37 37 41 44 45 46 45 43 44 47 47 45 48 43 46 44 45 44 42 45 48 49 43 44 48 46 45 45 48 44 48 46 47 50 44 45 46 43 44 48 49 46 45 47 47 49 46 46 51 48 51 44 46 49 49 47 46 46 46 49 56 52 51 52 50 45 44 46 45 47 45 46 44 48 44 43 51 54 44 44 42 45 47 47 44 47 49 47 
41 43 42 40 43 42 46 42 44 40 46 40 39 41 44 41 44 41 44 43 46 43 46 46 44 45 45 45 44 42 43 43 45 45 45 47 45 44 46 44 45 44 47 45 40 44 47 42 45 42 41 47 44 50 50 46 51 51 50 47 47 49 49 48 43 47 45 51 51 47 50 48 39 53 44 41 48 53 42 46 48 48 44 55 46 47 48 47 44 46 42 39 39 41 40 40 42 44 38 37 
43 46 45 46 50 40 48 41 44 46 45 45 42 42 42 39 37 41 44 42 40 38 40 40 44 41 46 44 43 46 45 47 44 41 46 46 45 48 44 43 49 49 45 46 46 49 54 46 48 45 48 44 53 49 53 52 43 48 44 55 54 51 52 47 50 46 49 45 44 45 41 44 43 49 49 44 46 44 40 37 42 45 44 48 41 46 46 43 40 44 49 44 43 36 36 36 39 42 40 42 
43 43 44 50 41 44 36 41 43 37 38 36 33 40 32 42 44 48 46 41 38 43 46 48 47 40 48 45 42 49 46 49 50 51 44 45 44 45 52 47 48 52 43 46 49 48 55 47 49 51 46 45 49 50 47 51 54 50 45 49 51 49 53 54 53 48 49 46 46 51 51 57 48 48 44 48 35 44 44 44 42 43 46 44 41 45 44 42 41 40 34 40 37 42 38 39 37 40 39 41 
44 48 45 47 47 38 44 40 40 45 39 45 46 42 42 45 41 44 43 45 43 49 46 45 50 44 47 46 43 47 47 47 48 45 52 48 48 53 47 46 47 52 48 48 48 46 48 46 51 53 46 49 48 52 47 50 56 45 56 49 55 53 48 52 52 55 52 55 54 48 50 46 47 42 47 46 45 44 50 44 47 43 48 46 45 44 41 44 40 36 42 38 41 33 38 36 36 38 38 40 
40 41 41 43 34 47 35 43 42 38 46 40 44 43 34 42 39 40 39 44 43 47 44 45 49 47 43 46 45 45 50 46 47 50 44 46 45 45 54 50 50 50 52 49 49 50 45 48 51 46 49 47 52 50 54 49 53 46 54 48 50 55 50 55 49 52 49 51 50 46 49 45 45 46 39 48 39 47 40 40 42 40 46 44 43 42 37 41 42 41 38 46 38 42 38 39 40 40 39 36 
43 46 46 42 46 42 48 42 42 43 41 39 43 37 42 41 44 43 41 42 40 42 45 51 45 48 40 45 48 46 52 47 47 45 54 52 49 51 46 47 51 44 49 46 48 53 46 49 50 45 48 49 48 50 53 48 45 51 47 57 50 52 46 44 53 49 50 44 41 43 39 42 41 39 37 33 38 37 38 37 31 38 39 36 36 39 35 35 46 36 38 37 43 42 46 39 36 36 39 38 
45 41 44 42 41 47 39 43 39 36 44 41 40 43 38 39 39 41 44 43 43 41 43 43 44 48 41 44 51 49 49 49 54 53 49 52 49 45 50 49 50 42 46 46 46 50 46 46 49 50 47 52 46 52 49 51 52 53 42 49 44 42 45 45 36 36 44 42 42 45 39 39 32 36 35 41 34 40 35 34 29 39 35 36 34 38 36 35 37 38 42 45 34 36 35 32 35 34 37 34 
50 42 45 40 45 41 42 43 44 43 43 43 38 44 44 43 42 42 44 39 43 44 45 40 47 49 45 43 52 51 45 48 50 45 47 50 49 47 47 48 50 46 49 53 47 45 47 44 43 47 47 42 48 45 47 52 48 40 44 43 51 42 45 46 44 46 40 40 38 37 42 40 39 40 42 40 31 35 38 36 35 43 35 41 38 39 37 41 38 34 36 33 30 33 38 33 35 32 35 33 
47 39 39 43 40 40 43 44 35 43 45 40 41 44 44 43 47 41 46 44 41 45 45 48 45 46 45 45 43 45 48 51 45 46 45 48 49 47 48 46 44 46 44 39 45 43 46 48 44 46 50 40 47 49 44 42 40 45 39 40 41 43 37 39 44 44 40 38 39 38 46 39 42 42 36 38 39 40 36 41 40 33 37 34 37 35 32 34 31 33 28 31 30 31 27 34 32 34 27 30 
44 45 46 44 42 46 46 40 40 39 40 45 44 37 37 46 45 43 39 43 42 41 46 40 44 43 47 45 48 43 43 40 44 46 44 47 46 44 45 44 43 43 51 45 47 47 40 47 43 41 45 45 41 42 47 38 44 36 46 42 40 40 48 36 39 33 44 41 43 44 37 38 37 39 40 30 39 37 38 33 40 35 26 35 30 42 30 34 32 34 31 31 32 32 30 35 31 29 34 35 
45 42 41 43 42 41 44 44 43 40 37 40 45 43 39 38 43 43 39 43 42 40 44 39 43 43 38 42 40 48 47 49 43 44 41 43 43 42 47 48 47 43 46 44 43 45 39 50 41 47 42 46 44 41 43 41 38 50 42 36 45 44 36 43 40 35 34 35 38 36 42 42 38 36 31 40 38 39 32 37 33 28 37 26 35 28 36 36 32 34 33 30 33 33 33 35 32 34 36 31 
38 43 42 35 35 43 45 40 38 45 46 41 40 42 42 40 40 40 46 42 40 43 41 45 43 42 46 41 47 42 45 42 49 49 45 46 44 41 42 42 43 45 40 50 48 45 42 42 40 47 40 44 43 40 38 43 43 41 42 45 32 41 43 35 40 39 35 38 39 34 43 38 33 32 32 29 33 32 31 27 30 28 31 28 35 33 34 30 30 31 34 29 33 32 35 33 32 30 38 35 
41 38 39 44 45 40 39 44 41 43 43 44 44 41 40 45 40 40 45 41 40 43 41 46 44 47 42 45 37 43 40 43 40 41 41 46 49 47 47 45 49 49 40 46 42 41 45 45 47 40 43 48 39 43 41 42 42 43 43 35 41 38 40 39 44 39 47 39 39 40 36 35 39 37 36 31 33 32 33 29 27 31 25 34 28 36 28 28 31 31 34 30 33 32 34 30 26 33 28 27 
40 45 45 41 42 44 43 41 46 39 36 41 48 45 41 41 41 46 39 40 43 42 45 41 37 39 46 42 47 42 45 42 45 44 39 41 42 40 41 39 40 41 47 47 43 45 41 40 47 40 44 43 41 43 38 42 43 43 42 40 43 43 43 44 43 40 41 34 34 36 38 35 36 31 26 34 27 30 28 32 28 30 29 29 29 26 30 30 33 32 34 32 32 31 32 29 32 30 28 35 
43 43 40 40 41 39 38 43 39 40 39 38 40 39 39 41 40 45 38 39 43 41 42 38 45 45 39 39 37 44 43 43 43 41 37 38 39 39 41 41 40 40 43 40 43 53 56 49 40 41 39 35 41 37 33 38 42 38 36 45 39 45 42 42 34 37 34 36 36 28 36 27 29 29 35 26 29 29 36 29 34 30 23 28 31 31 31 28 34 30 30 32 29 31 32 30 28 36 36 34 
34 42 42 37 39 41 38 36 39 38 36 37 38 36 35 39 36 39 42 37 39 41 35 38 40 39 39 38 43 44 41 34 40 42 43 47 47 42 40 37 40 43 38 42 56 66 77 57 43 41 40 41 40 35 43 37 36 33 34 35 42 37 35 36 38 32 39 35 33 29 24 24 27 24 26 31 24 25 25 25 33 30 27 29 33 28 33 32 32 27 25 31 26 30 31 33 36 29 29 25 
38 36 37 41 37 37 36 38 36 38 38 35 35 36 36 35 37 40 31 40 38 30 40 36 41 37 37 39 37 35 36 36 36 38 39 39 40 42 42 39 41 38 36 41 43 73 64 67 43 38 40 38 35 37 42 36 40 39 44 36 32 40 40 36 34 35 34 32 32 31 32 36 29 28 36 24 23 33 26 32 28 28 31 31 35 33 25 29 26 29 26 32 28 27 27 27 28 22 28 24 
37 36 34 37 36 42 40 35 36 36 35 35 35 35 36 37 36 41 34 34 39 40 40 34 32 33 37 39 35 34 37 40 42 42 42 40 39 39 38 37 33 43 45 36 36 68 70 50 41 35 40 35 38 36 42 35 39 33 38 41 38 36 35 37 37 34 30 31 35 35 31 28 27 30 34 33 34 36 33 29 30 28 28 28 29 29 27 30 26 19 27 15 19 19 20 25 26 23 27 20 
40 35 35 42 39 38 38 43 37 35 33 35 34 33 34 37 38 36 33 35 41 40 35 37 34 34 38 40 36 34 36 38 35 35 36 37 38 39 41 43 39 34 38 40 37 38 48 36 40 37 36 39 35 40 39 36 37 38 37 36 35 38 41 36 29 37 40 37 30 26 27 34 37 31 27 26 24 28 31 27 32 31 31 34 31 26 25 23 19 25 18 21 19 17 24 22 23 18 27 28 
34 39 39 37 32 38 38 35 41 39 38 38 38 37 38 39 36 33 35 39 38 34 33 37 39 36 36 39 39 38 38 35 36 35 35 37 38 37 38 41 40 34 38 40 39 31 37 33 41 35 41 34 41 34 41 35 40 38 33 38 38 35 39 39 38 36 32 31 35 35 30 27 40 27 33 31 29 37 34 35 31 29 25 26 20 16 21 18 16 17 18 22 19 25 20 24 29 28 36 32 
40 34 32 41 39 37 33 34 32 33 33 32 31 32 32 31 32 35 37 39 32 32 41 33 39 35 34 37 40 42 41 38 42 39 38 40 39 36 35 36 34 35 39 36 41 41 39 41 40 40 37 39 34 37 37 39 35 37 34 37 39 35 36 34 33 37 38 35 33 32 32 34 38 29 37 36 33 37 33 33 27 25 22 24 19 18 25 22 28 21 27 24 31 29 33 37 39 41 47 44 
33 37 37 37 33 39 36 29 31 34 34 33 33 35 35 32 34 33 33 39 35 34 42 35 40 38 39 39 38 39 40 39 38 36 36 39 40 39 38 38 35 34 35 36 41 40 35 44 40 37 42 34 40 33 40 41 33 41 37 32 33 37 36 31 35 38 37 35 37 38 35 34 39 36 31 31 26 24 30 27 29 29 30 32 31 31 33 31 34 35 30 37 40 35 44 43 43 44 49 51 
29 30 32 36 30 29 28 30 31 32 32 32 32 33 33 32 35 32 32 37 38 34 35 40 41 40 41 41 38 37 38 36 36 35 36 37 38 37 37 38 37 40 37 35 38 37 38 36 36 37 36 36 35 35 35 39 40 35 33 34 35 31 29 38 33 36 34 32 34 35 33 32 32 35 29 32 31 28 33 28 31 30 28 26 28 32 32 36 28 30 36 37 33 44 35 40 42 47 44 43 
