P2
3 2
30
1 1 1
2 2 2
